<?xml version="1.0" encoding="UTF-8" standalone="no"?>
<!-- Created with Inkscape (http://www.inkscape.org/) -->

<svg
   width="2400"
   height="1300"
   viewBox="0 0 635 343.95834"
   version="1.1"
   id="svg1"
   xml:space="preserve"
   inkscape:version="1.3 (0e150ed6c4, 2023-07-21)"
   sodipodi:docname="Zeichnung.svg"
   xmlns:inkscape="http://www.inkscape.org/namespaces/inkscape"
   xmlns:sodipodi="http://sodipodi.sourceforge.net/DTD/sodipodi-0.dtd"
   xmlns:xlink="http://www.w3.org/1999/xlink"
   xmlns="http://www.w3.org/2000/svg"
   xmlns:svg="http://www.w3.org/2000/svg"><sodipodi:namedview
     id="namedview1"
     pagecolor="#2db9ff"
     bordercolor="#eeeeee"
     borderopacity="1"
     inkscape:showpageshadow="0"
     inkscape:pageopacity="0"
     inkscape:pagecheckerboard="0"
     inkscape:deskcolor="#d1d1d1"
     inkscape:document-units="mm"
     inkscape:export-bgcolor="#2db9ffff"
     inkscape:zoom="0.23464825"
     inkscape:cx="773.49821"
     inkscape:cy="411.25387"
     inkscape:window-width="1920"
     inkscape:window-height="1001"
     inkscape:window-x="-9"
     inkscape:window-y="41"
     inkscape:window-maximized="1"
     inkscape:current-layer="g19" /><defs
     id="defs1"><linearGradient
       id="linearGradient128"
       inkscape:collect="always"><stop
         style="stop-color:#ffffff;stop-opacity:1;"
         offset="0"
         id="stop127" /><stop
         style="stop-color:#2db9ff;stop-opacity:1;"
         offset="1"
         id="stop128" /></linearGradient><linearGradient
       id="linearGradient126"
       inkscape:collect="always"><stop
         style="stop-color:#ffffff;stop-opacity:1;"
         offset="0"
         id="stop125" /><stop
         style="stop-color:#2db9ff;stop-opacity:1;"
         offset="1"
         id="stop126" /></linearGradient><linearGradient
       id="linearGradient124"
       inkscape:collect="always"><stop
         style="stop-color:#ffffff;stop-opacity:1;"
         offset="0"
         id="stop123" /><stop
         style="stop-color:#2db9ff;stop-opacity:1;"
         offset="1"
         id="stop124" /></linearGradient><linearGradient
       id="linearGradient122"
       inkscape:collect="always"><stop
         style="stop-color:#ffffff;stop-opacity:1;"
         offset="0"
         id="stop121" /><stop
         style="stop-color:#2db9ff;stop-opacity:1;"
         offset="1"
         id="stop122" /></linearGradient><linearGradient
       id="linearGradient120"
       inkscape:collect="always"><stop
         style="stop-color:#ffffff;stop-opacity:1;"
         offset="0"
         id="stop119" /><stop
         style="stop-color:#2db9ff;stop-opacity:1;"
         offset="1"
         id="stop120" /></linearGradient><linearGradient
       id="linearGradient118"
       inkscape:collect="always"><stop
         style="stop-color:#ffffff;stop-opacity:1;"
         offset="0"
         id="stop117" /><stop
         style="stop-color:#2db9ff;stop-opacity:1;"
         offset="1"
         id="stop118" /></linearGradient><linearGradient
       id="linearGradient109"
       inkscape:collect="always"><stop
         style="stop-color:#ffffff;stop-opacity:1;"
         offset="0"
         id="stop110" /><stop
         style="stop-color:#2db9ff;stop-opacity:1;"
         offset="1"
         id="stop111" /></linearGradient><radialGradient
       inkscape:collect="always"
       xlink:href="#linearGradient109"
       id="radialGradient111"
       cx="11846.796"
       cy="4317.041"
       fx="11846.796"
       fy="4317.041"
       r="2336.5236"
       gradientTransform="matrix(1,0,0,0.3607891,0,2759.4997)"
       gradientUnits="userSpaceOnUse" /><radialGradient
       inkscape:collect="always"
       xlink:href="#linearGradient124"
       id="radialGradient112"
       cx="18595.128"
       cy="3774.7214"
       fx="18595.128"
       fy="3774.7214"
       r="2089.1053"
       gradientTransform="matrix(1,0,0,0.53251904,0,1764.6104)"
       gradientUnits="userSpaceOnUse" /><radialGradient
       inkscape:collect="always"
       xlink:href="#linearGradient126"
       id="radialGradient113"
       cx="15660.027"
       cy="7039.3937"
       fx="15660.027"
       fy="7039.3937"
       r="1878.5376"
       gradientTransform="matrix(1,0,0,0.58513658,0,2920.3869)"
       gradientUnits="userSpaceOnUse" /><radialGradient
       inkscape:collect="always"
       xlink:href="#linearGradient128"
       id="radialGradient114"
       cx="14475.864"
       cy="935.02158"
       fx="14475.864"
       fy="935.02158"
       r="2364.4704"
       gradientTransform="matrix(1,0,0,0.35548642,0,602.63411)"
       gradientUnits="userSpaceOnUse" /><radialGradient
       inkscape:collect="always"
       xlink:href="#linearGradient122"
       id="radialGradient115"
       cx="21993.014"
       cy="832.44292"
       fx="21993.014"
       fy="832.44292"
       r="1975.0442"
       gradientTransform="matrix(1,0,0,0.47266125,0,438.97941)"
       gradientUnits="userSpaceOnUse" /><radialGradient
       inkscape:collect="always"
       xlink:href="#linearGradient120"
       id="radialGradient116"
       cx="24746.133"
       cy="4152.5154"
       fx="24746.133"
       fy="4152.5154"
       r="1695.0434"
       gradientTransform="matrix(1,0,0,0.60092413,0,1657.1687)"
       gradientUnits="userSpaceOnUse" /><radialGradient
       inkscape:collect="always"
       xlink:href="#linearGradient118"
       id="radialGradient117"
       cx="21334.795"
       cy="7296.1386"
       fx="21334.795"
       fy="7296.1386"
       r="2043.5095"
       gradientTransform="matrix(1,0,0,0.53280839,0,3408.6947)"
       gradientUnits="userSpaceOnUse" /></defs><g
     inkscape:label="Ebene 1"
     inkscape:groupmode="layer"
     id="layer1"><g
       transform="matrix(0.03527778,0,0,-0.03527778,-316.49309,321.78364)"
       fill="#000000"
       stroke="none"
       id="g19"><path
         d="m 24554.699,5159.5998 c -98,-25.009 -167,-65.022 -242,-140.047 -102,-101.034 -153,-208.07 -191,-401.134 -12,-59.02 -21,-84.028 -29,-80.027 -43,16.005 -146,28.01 -210,24.008 -135,-9.003 -277,-102.034 -371,-243.081 -78,-117.039 -99,-260.087 -55,-380.127 12,-33.011 24,-67.023 27,-75.025 4,-12.004 -9,-18.006 -61,-27.009 -325,-56.019 -487,-441.1473 -278,-661.2209 l 40,-42.014 h 1477 1477 l 57,27.009 c 32,15.005 82,52.0174 115,84.0281 215,215.0718 156,580.1938 -116,710.2368 -108,51.017 -223,58.02 -375,22.008 l -24,-6.002 20,39.013 c 59,118.039 71,245.082 32,347.116 -32,86.028 -130,186.062 -228,234.078 -71,36.012 -80,38.013 -171,37.012 -92,0 -139,-11.003 -262,-59.019 -14,-5.002 -17,7.002 -22,82.027 -12,162.054 -67,282.094 -181,391.131 -91,88.029 -170,124.041 -284,128.042 -55,2.001 -108,-2 -145,-11.003 z"
         id="path1"
         style="stroke-width:1.00017;fill:url(#radialGradient116);fill-opacity:1" /><path
         d="m 15549.475,8133.0908 c -81,-13.005 -192,-49.017 -260,-83.028 -79,-40.013 -209,-137.046 -254,-190.063 l -25,-30.011 -62,30.011 c -306,144.048 -581,-34.012 -614,-397.133 l -7,-73.025 -42,-10.003 c -264,-63.021 -410,-188.063 -481,-413.138 -67,-210.07 16,-410.137 203,-494.165 48,-22.008 77,-27.009 185,-32.011 l 129,-6.002 22,-71.024 c 30,-95.032 69,-164.055 124,-218.073 66,-67.022 120,-89.029 227,-94.031 102,-4.001 181,11.004 301,57.019 l 76,30.01 53,-44.015 c 71,-58.019 181,-110.036 285,-136.045 71,-18.006 103,-21.007 210,-16.006 202,8.003 331,63.022 510,217.073 l 55,48.016 45,-41.014 c 179,-160.053 453,-135.045 645,57.019 104,105.036 175,255.086 175,371.125 0,63.021 14,74.024 105,85.028 263,33.011 436,282.094 370,534.178 -52,197.066 -203,337.113 -398,368.124 -64,10.003 -89,9.003 -163,-6.002 -47,-9.003 -88,-15.005 -89,-14.005 -1,2.001 -17,31.01 -35,65.022 -42,81.027 -131,165.055 -217,206.068 -68,32.011 -69,32.011 -224,32.011 -176,0 -163,-5.001 -294,106.036 -77,65.021 -219,133.044 -317,153.051 -72,15.005 -179,19.006 -238,9.003 z"
         id="path2"
         style="stroke-width:1.00017;fill:url(#radialGradient113);fill-opacity:1" /><path
         d="m 21313.32,8375.6878 c -249,-26.009 -479,-174.058 -612,-392.131 -57,-94.032 -73,-103.035 -194,-104.035 -162,-3.001 -241,-33.011 -347,-131.044 -50,-46.015 -71,-75.025 -111,-160.053 -28,-57.019 -51,-103.035 -52,-103.035 -1,0 -54,9.003 -117,20.007 -63,11.004 -140,20.007 -170,20.007 -231,0 -422,-189.064 -419,-414.139 1,-82.027 12,-117.039 55,-178.059 82,-115.039 278,-145.049 506,-77.026 39,11.004 71,19.006 73,17.006 1,-2.001 18,-38.013 38,-80.027 23,-50.017 53,-95.032 84,-126.042 130,-130.044 388,-183.061 576,-118.04 42,15.005 86,25.009 97,21.007 10,-3.001 48,-41.013 83,-84.028 273,-329.11 724,-373.125 1014,-98.033 79,75.026 123,134.045 187,250.084 33,59.02 41,68.023 59,63.021 145,-43.014 178,-48.016 287,-49.016 104,0 124,3.001 209,32.01 192,65.022 277,156.053 304,326.109 6,41.014 15,75.026 20,75.026 5,0 18,-5.002 30,-12.004 83,-45.016 289,-12.004 367,58.019 47,42.014 90,138.046 97,214.071 7,78.027 -24,181.061 -72,237.08 -19,23.007 -61,54.018 -93,70.023 -53,26.009 -68,28.01 -222,34.012 -91,4.001 -166,7.002 -167,8.002 -1,0 -16,27.009 -34,59.02 -71,125.042 -213,229.076 -358,262.088 -52,12.004 -173,10.003 -316,-6.002 l -50,-5.002 -35,56.019 c -77,126.042 -230,238.079 -385,284.095 -61,18.006 -221,43.014 -250,40.013 -5,-1 -43,-5.002 -82,-9.003 z"
         id="path3"
         style="stroke-width:1.00017;fill:url(#radialGradient117);fill-opacity:1" /><path
         d="m 15203.264,1761.0415 c -163,-40.0134 -313,-161.0538 -387,-313.1047 -34,-70.0234 -43,-82.0274 -60,-77.0257 -38,11.0037 -135,16.0053 -170,10.0033 -76,-15.005 -141,-106.0354 -160,-226.0755 -7,-42.0141 -11,-47.0157 -57,-69.0231 -34,-16.0054 -61,-39.013 -85,-72.0241 l -35,-49.01635 -34,29.0097 c -59,52.01735 -135,61.02035 -207,24.00805 -16,-8.0027 -30,-13.0044 -31,-11.0037 -1,2.0006 -19,38.0127 -39,80.0267 -80,172.0575 -219,258.0863 -417,258.0863 -150,0 -290,-59.0197 -389,-166.0555 -56,-59.0197 -121,-172.0575 -121,-208.06955 0,-20.0066 2,-20.0066 -68,0 -46,13.0044 -66,14.0047 -99,5.0017 -99,-27.009 -170,-118.0394 -180,-229.0766 l -6,-61.0204 -56,-6.002 c -169,-18.006 -287,-72.024 -385,-175.0585 -98,-104.0348 -127,-205.0685 -91,-312.1043 9,-25.0084 28,-57.0191 44,-72.0241 l 27,-26.008701 2200,2.0007 2199,3.001 67,33.011001 c 152,75.0251 216,221.0739 153,349.1167 -33,65.0218 -82,99.0331 -173,120.0401 l -72,17.0057 v 46.0154 c 0,52.0174 -35,134.0448 -71,167.0559 -62,57.019 -174,80.0267 -290,60.02 l -45,-8.0027 -23,51.0171 c -42,93.03105 -139,150.05015 -255,150.05015 h -51 l 3,125.0418 c 4,143.0478 -10,213.0712 -60,312.1043 -94,188.0629 -348,294.0983 -576,239.0799 z"
         id="path4"
         style="stroke-width:1.00017;fill:url(#radialGradient114);fill-opacity:1" /><path
         d="m 18355.45,4880.1528 c -307,-46.015 -578,-281.094 -634,-550.184 -11,-53.017 -16,-64.021 -32,-62.02 -10,2 -50,8.002 -88,14.004 -216,35.012 -379,-65.021 -518,-319.106 -35,-63.021 -44,-73.025 -62,-67.023 -50,14.005 -166,17.006 -217,5.002 -141,-33.011 -234,-115.038 -280,-247.083 -23,-69.023 -25,-172.057 -3,-235.0787 33,-100.0334 135,-176.0588 247,-185.0618 68,-6.002 107,-24.0081 107,-51.0171 1,-36.012 50,-156.0521 91,-218.0729 101,-156.0521 275,-263.0879 479,-295.0986 182,-28.0094 408,27.009 591,146.0488 l 71,46.0154 63,-59.0198 c 145,-137.0458 309,-164.0548 482,-83.0277 71,34.0114 164,110.0368 218,179.0598 22,28.0094 43,51.0171 48,52.0174 4,0 34,-19.0063 68,-41.0137 33,-23.0077 95,-55.0184 137,-72.024 65,-25.0084 95,-31.0104 190,-35.0118 142,-6.002 219,11.0037 361,80.0268 89,43.0144 116,62.0207 185,132.0441 83,83.0278 140,173.0579 167,264.0883 l 13,44.0147 100,-7.0023 c 174,-12.004 326,37.0124 434,138.0471 78,74.024 105,132.044 110,237.079 5,100.033 -14,190.063 -55,259.086 -61,104.035 -194,193.065 -340,227.076 -84,20.007 -230,22.008 -303,4.002 -54,-12.004 -149,-54.018 -192,-84.028 -21,-15.005 -23,-13.005 -53,32.01 -45,67.023 -117,130.044 -182,159.053 -88,41.014 -249,43.015 -435,6.002 -28,-5.001 -28,-5.001 -28,53.018 0,130.044 -53,247.083 -156,350.117 -142,141.047 -374,214.072 -584,183.061 z"
         id="path5"
         style="stroke-width:1.00017;fill:url(#radialGradient112);fill-opacity:1" /><path
         d="m 22022.941,1759.538 c -184,-29.0097 -347,-104.0348 -455,-209.0699 -86,-83.0277 -139,-165.0552 -182,-281.0939 -26,-70.0235 -37,-89.0298 -49,-84.0281 -177,74.0247 -406,25.0083 -548,-117.0392 -91,-91.03035 -142,-217.07245 -128,-315.10525 5,-41.0137 4,-44.0147 -22,-49.0164 -215,-44.0147 -324,-97.0324 -442,-215.0719 -68,-67.0224 -95,-103.0344 -129,-172.0575 -39,-76.0254 -45,-97.0324 -49,-168.0562 -5,-94.031401 9,-154.0515006 49,-210.070201 l 29,-40.013399 h 1829 1829 l 54,44.014699 c 163,133.0445 204,349.116701 108,578.193301 -62,148.0495 -169,259.0866 -332,344.1151 -206,106.0354 -373,110.0367 -555,15.005 -40,-21.007 -73,-33.0111 -73,-27.0091 0,6.0021 7,36.0121 15,66.0221 23,86.02875 29,189.06315 15,269.08995 -40,240.0802 -283,475.1588 -571,552.1846 -86,23.0076 -300,33.011 -393,19.0063 z"
         id="path7"
         style="stroke-width:1.00017;fill:url(#radialGradient115);fill-opacity:1" /><path
         d="m 11934.32,5154.6108 c -140,-21.007 -261,-85.028 -358,-190.063 -67,-73.025 -132,-198.067 -142,-272.091 -4,-26.009 -8,-48.016 -9,-48.016 -2,0 -22,9.003 -46,20.006 -24,11.004 -62,20.007 -84,20.007 -94,0 -175,-101.034 -175,-221.074 v -37.012 l -54,-4.002 c -39,-3.001 -65,-12.004 -90,-32.01 l -35,-27.009 -22,43.014 c -34,67.022 -66,103.034 -122,142.047 -154,104.035 -370,83.028 -500,-50.016 -57,-58.02 -83,-110.037 -101,-196.066 -11,-55.018 -17,-65.022 -47,-82.027 -94,-53.018 -149,-127.043 -149,-203.068 0,-35.012 0,-35.012 -81.0002,-48.016 -41,-6.002 -81,-43.014 -102,-95.032 -14,-32.011 -19,-35.012 -97,-52.017 -96,-20.007 -142,-46.016 -177,-99.033 -28,-42.014 -40,-127.043 -29,-203.068 l 7,-46.016 h 2238.0002 2239 l 15,23.008 c 9,13.004 41,53.018 72,88.029 76,86.029 98,131.044 98,199.067 0,30.01 -5,66.022 -13,80.027 -37,73.024 -117,120.04 -230,135.045 -71,10.003 -86,18.006 -93,54.018 -4,17.006 -23,48.016 -42,70.023 -39,43.015 -93,66.022 -183,77.026 -38,5.002 -52,11.004 -48,20.007 3,7.002 10,40.013 16,74.025 37,201.067 -114,380.127 -333,397.132 -167,13.005 -292,-51.017 -405,-204.068 -30,-41.014 -52,-63.021 -62,-60.02 -8,2.001 -50,15.005 -92,28.009 -73,23.008 -77,25.009 -70,49.017 13,46.015 5,128.043 -15,162.054 -10,18.006 -35,44.015 -54,56.019 -29,21.007 -43,23.007 -96,19.006 l -63,-5.002 v 52.018 c 0,238.079 -211,404.135 -466,366.122 z"
         id="path8"
         style="stroke-width:1.00017;fill:url(#radialGradient111);fill-opacity:1" /></g></g></svg>
