<?xml version="1.0" encoding="UTF-8" standalone="no"?>
<!-- Created with Inkscape (http://www.inkscape.org/) -->

<svg
   version="1.1"
   id="svg2"
   xml:space="preserve"
   width="512pt"
   height="512pt"
   viewBox="0 0 682.66668 682.66669"
   sodipodi:docname="file.svg"
   inkscape:version="1.1.2 (b8e25be833, 2022-02-05)"
   inkscape:export-filename="C:\Users\Alex\Uni\TU\Diplomarbeit\BCA-GUIDE\icons\file.png"
   inkscape:export-xdpi="72"
   inkscape:export-ydpi="72"
   xmlns:inkscape="http://www.inkscape.org/namespaces/inkscape"
   xmlns:sodipodi="http://sodipodi.sourceforge.net/DTD/sodipodi-0.dtd"
   xmlns="http://www.w3.org/2000/svg"
   xmlns:svg="http://www.w3.org/2000/svg"><defs
     id="defs6"><clipPath
       clipPathUnits="userSpaceOnUse"
       id="clipPath16"><path
         d="M 0,512 H 512 V 0 H 0 Z"
         id="path14" /></clipPath></defs><sodipodi:namedview
     id="namedview4"
     pagecolor="#505050"
     bordercolor="#eeeeee"
     borderopacity="1"
     inkscape:pageshadow="0"
     inkscape:pageopacity="0"
     inkscape:pagecheckerboard="0"
     showgrid="false"
     inkscape:zoom="0.52661131"
     inkscape:cx="232.61939"
     inkscape:cy="367.44368"
     inkscape:window-width="1920"
     inkscape:window-height="1001"
     inkscape:window-x="-9"
     inkscape:window-y="41"
     inkscape:window-maximized="1"
     inkscape:current-layer="g22"
     units="pt"
     inkscape:document-units="pt" /><g
     id="g8"
     inkscape:groupmode="layer"
     inkscape:label="new"
     transform="matrix(1.3333333,0,0,-1.3333333,0,682.66667)"><g
       id="g10"><g
         id="g12"
         clip-path="url(#clipPath16)"><g
           id="g18"
           transform="translate(185.2178,253.9219)" /><g
           id="g22"
           transform="translate(371.8965,467.1611)"><path
             d="m -21.502376,1.003493 c 0,-15.736 -0.057,-30.195 0.02,-44.653 0.049,-9.324 6.305,-15.539 15.7549999,-15.606 13.647,-0.096 27.2950001,-0.037 40.9430001,-0.002 0.994,0.002 1.987,0.342 1.987,0.342 -19.176,19.572 -38.4760001,39.272 -58.705,59.919 M -292.52338,-148.84351 h -14.75 v 4.79 c 0,49.994003 -0.018,99.989003 0.007,149.983003 0.009,17.685 12.766,30.724 30.524,30.745 79.491,0.094 158.982,0.071 238.473005,-0.064 2.163,-0.003 4.843999,-1.223 6.403999,-2.764 34.9659999,-34.55699999 69.832,-69.214 104.591,-103.978 1.53,-1.53 2.636,-4.26 2.639,-6.432 0.131,-116.986003 0.147,-233.973003 0.104,-350.959003 -0.006,-18.439 -13.139,-31.502 -31.533,-31.508 -106.655999,-0.031 -213.311004,-0.032 -319.965004,0.004 -17.868,0.006 -31.212,13.508 -31.241,31.394 -0.028,18.164 0,260.8 -0.003,278.965 v 4.614 h 14.779 c 0,-2.335 10e-4,-4.451 0,-6.569 -0.006,-17.331 -0.053,-259.133 -0.018,-276.465 0.023,-10.619 6.52,-17.179 17.115,-17.18 106.491,-0.023 212.981005,-0.021 319.471004,-0.003 9.992,10e-4 15.643,6.249 15.646,17.17 0.009,44.829 0.008,89.657 0.006,134.485 -0.004,69.659 -0.011,139.318 -0.02,208.976003 -10e-4,7.506 -2.165,9.599 -9.773,9.596 -18.165,-0.008 -36.33,-0.023 -54.4950001,0.02 -19.0529999,0.045 -31.6409989,12.574 -31.7039989,31.608 -0.06,18.498 -0.002,36.996 -0.012,55.494 -0.003,6.003 -2.771,8.88 -8.644,8.88 -76.991005,0.006 -153.982005,0.01 -230.974005,-0.03 -10.72,-0.006 -16.596,-6.021 -16.601,-16.792 -0.023,-49.161 -0.02,-98.322 -0.026,-147.483003 -0.001,-1.983 0,-3.966 0,-6.497"
             style="fill:#000000;fill-opacity:1;fill-rule:nonzero;stroke:none;stroke-width:0.99975;stroke-miterlimit:4;stroke-dasharray:none"
             id="path24"
             sodipodi:nodetypes="ccccccccscsccccccsccccccccccsccccccccc"
             inkscape:export-filename="C:\Users\Alex\Uni\TU\Diplomarbeit\BCA-GUIDE\icons\file.png"
             inkscape:export-xdpi="72"
             inkscape:export-ydpi="72" /></g></g></g></g></svg>
