<?xml version="1.0" encoding="UTF-8" standalone="no"?>
<!-- Created with Inkscape (http://www.inkscape.org/) -->

<svg
   version="1.1"
   id="svg2"
   xml:space="preserve"
   width="682.66669"
   height="682.66669"
   viewBox="0 0 682.66669 682.66669"
   sodipodi:docname="save_new.svg"
   inkscape:version="1.1.2 (b8e25be833, 2022-02-05)"
   xmlns:inkscape="http://www.inkscape.org/namespaces/inkscape"
   xmlns:sodipodi="http://sodipodi.sourceforge.net/DTD/sodipodi-0.dtd"
   xmlns="http://www.w3.org/2000/svg"
   xmlns:svg="http://www.w3.org/2000/svg"><defs
     id="defs6"><clipPath
       clipPathUnits="userSpaceOnUse"
       id="clipPath16"><path
         d="M 0,512 H 512 V 0 H 0 Z"
         id="path14" /></clipPath></defs><sodipodi:namedview
     id="namedview4"
     pagecolor="#505050"
     bordercolor="#eeeeee"
     borderopacity="1"
     inkscape:pageshadow="0"
     inkscape:pageopacity="0"
     inkscape:pagecheckerboard="0"
     showgrid="false"
     inkscape:zoom="0.41846357"
     inkscape:cx="-87.223841"
     inkscape:cy="462.40584"
     inkscape:window-width="1920"
     inkscape:window-height="1001"
     inkscape:window-x="-9"
     inkscape:window-y="41"
     inkscape:window-maximized="1"
     inkscape:current-layer="g12" /><g
     id="g8"
     inkscape:groupmode="layer"
     inkscape:label="save"
     transform="matrix(1.3333333,0,0,-1.3333333,0,682.66667)"><g
       id="g10"><g
         id="g12"
         clip-path="url(#clipPath16)"><g
           id="g18"
           transform="translate(376.3467,485.7314)"><path
             d="m 0,0 c -3.798,0.284 -7.078,0.737 -10.358,0.743 -29.382,0.049 -58.763,0.015 -88.145,0.015 -43.422,0 -86.845,-0.12 -130.265,0.147 -6.86,0.042 -9.103,-2.041 -8.801,-8.91 0.513,-11.672 0.14,-23.382 0.14,-35.077 0,-37.155 0.107,-74.311 -0.106,-111.465 -0.034,-5.895 1.363,-8.778 7.799,-8.286 5.638,0.43 11.334,0.107 17.005,0.108 32.875,0.002 65.75,0.001 98.625,0.001 18.102,0 36.206,0.02 54.308,-0.008 16.85,-0.026 33.705,0.143 50.546,-0.268 8.308,-0.202 9.219,0.352 9.201,8.821 -0.061,29.366 0.03,58.732 0.048,88.098 C 0.011,-44.29 0,-22.499 0,0 M -281.242,-463.64 H 43.996 v 8.933 c 0.003,54.364 0.018,108.728 10e-4,163.093 -0.005,16.924 -4.993,21.984 -21.768,22 -38.96,0.038 -77.92,0.014 -116.88,0.014 -54.813,0 -109.625,0.015 -164.438,-0.01 -17.573,-0.008 -22.493,-4.828 -22.501,-22.053 -0.027,-54.625 -0.015,-109.249 0.004,-163.874 0.001,-2.543 0.211,-5.086 0.344,-8.103 m -57.641,-23.652 c -10.724,4.193 -20.649,9.326 -27.524,19.247 -6.519,9.407 -6.739,19.864 -6.734,30.603 0.053,104.025 0.016,208.051 0.039,312.076 0.009,36.409 0.079,72.818 0.193,109.226 0.06,19.253 17.411,38.009 36.584,38.975 12.455,0.628 24.962,0.153 37.44,0.42 4.511,0.097 5.894,-1.843 5.826,-6.054 -0.323,-19.894 1.663,-15.986 -15.113,-16.429 -7.538,-0.199 -15.088,0.08 -22.63,-0.03 -15.05,-0.219 -19.501,-4.68 -19.507,-19.703 -0.03,-78.039 -0.013,-156.079 -0.012,-234.117 0.002,-63.472 -0.013,-126.943 0.019,-190.415 0.008,-16.625 4.124,-20.675 20.66,-20.677 8.039,-10e-4 16.078,-10e-4 25.396,-10e-4 0,11.524 0.006,22.586 -0.001,33.65 -0.033,46.819 -0.119,93.638 -0.085,140.457 0.018,23.526 18.917,42.967 42.339,43.002 95.468,0.138 190.935,0.129 286.403,0.005 23.341,-0.031 42.327,-19.534 42.352,-43.015 0.058,-54.883 0.019,-109.766 0.019,-164.648 v -9.386 c 11.712,0 22.852,-0.636 33.872,0.237 6.658,0.528 11.029,5.478 11.834,12.494 0.413,3.601 0.258,7.273 0.259,10.914 0.011,108.214 -0.123,216.428 0.225,324.641 0.032,10.115 -2.451,17.33 -9.947,24.445 -25.453,24.158 -50.152,49.109 -75.154,73.743 -1.098,1.082 -2.338,2.019 -4.874,4.191 -0.212,-4.005 -0.494,-6.871 -0.495,-9.737 -0.017,-47.603 0.012,-95.207 0.01,-142.81 -10e-4,-16.661 -2.405,-19.245 -18.76,-19.252 -82.453,-0.032 -164.906,-0.008 -247.359,0.053 -13.15,0.01 -16.454,3.429 -16.46,16.816 -0.026,58.269 -0.024,116.538 0.036,174.807 0.015,13.773 3.167,16.769 17.117,16.771 83.76,0.01 167.52,-0.074 251.28,0.137 7.665,0.019 12.991,-2.509 18.384,-7.907 32.894,-32.929 66.03,-65.62 99.42,-98.045 6.41,-6.225 9.423,-12.439 9.393,-21.647 -0.333,-100.383 -0.208,-200.767 -0.208,-301.151 0,-12.744 -0.906,-25.568 0.213,-38.212 1.655,-18.676 -14.4,-37.906 -30.81,-41.966 -1.215,-0.301 -2.3,-1.127 -3.445,-1.708 z"
             style="fill:#000000;fill-opacity:1;fill-rule:nonzero;stroke:none"
             id="path20" /></g><path
           d="m 149.614,163.312 h 215.613 v -21.59 H 149.614 Z"
           style="fill:#006699;fill-opacity:1;fill-rule:nonzero;stroke:none"
           id="path22" /><g
           id="g24"
           transform="translate(150.0664,75.8301)"
           style="fill:#006699;fill-opacity:1"><path
             d="m 0,0 c -0.403,1.219 -0.674,1.7 -0.712,2.2 -1.524,19.956 -1.521,19.963 18.149,19.964 63.116,0.004 126.232,0.002 189.347,0.002 h 8.384 V 0 Z"
             style="fill:#006699;fill-opacity:1;fill-rule:nonzero;stroke:none"
             id="path26" /></g><g
           id="g28"
           transform="translate(319.1426,355.8501)"
           style="fill:#006699;fill-opacity:1"><path
             d="m 0,0 c -0.497,-0.426 -0.677,-0.715 -0.89,-0.742 -21.067,-2.679 -21.079,-2.678 -21.085,18.189 -0.007,24.928 0.224,49.858 -0.132,74.781 -0.094,6.595 2.045,8.859 8.421,8.257 4.341,-0.41 8.752,-0.078 13.686,-0.078 z"
             style="fill:#006699;fill-opacity:1;fill-rule:nonzero;stroke:none"
             id="path30" /></g></g></g></g></svg>
