<?xml version="1.0" encoding="UTF-8" standalone="no"?>
<!-- Created with Inkscape (http://www.inkscape.org/) -->

<svg
   width="826.66699"
   height="400"
   viewBox="0 0 218.72231 105.83333"
   version="1.1"
   id="svg5"
   inkscape:version="1.1.2 (b8e25be833, 2022-02-05)"
   sodipodi:docname="splash.svg"
   inkscape:export-filename="C:\Users\Alex\Uni\TU\Diplomarbeit\bca-sims\icons\splash_1.3.png"
   inkscape:export-xdpi="72"
   inkscape:export-ydpi="72"
   xmlns:inkscape="http://www.inkscape.org/namespaces/inkscape"
   xmlns:sodipodi="http://sodipodi.sourceforge.net/DTD/sodipodi-0.dtd"
   xmlns:xlink="http://www.w3.org/1999/xlink"
   xmlns="http://www.w3.org/2000/svg"
   xmlns:svg="http://www.w3.org/2000/svg">
  <sodipodi:namedview
     id="namedview7"
     pagecolor="#505050"
     bordercolor="#eeeeee"
     borderopacity="1"
     inkscape:pageshadow="0"
     inkscape:pageopacity="0"
     inkscape:pagecheckerboard="0"
     inkscape:document-units="mm"
     showgrid="false"
     inkscape:zoom="0.64052329"
     inkscape:cx="391.08648"
     inkscape:cy="14.831623"
     inkscape:window-width="1920"
     inkscape:window-height="1001"
     inkscape:window-x="-9"
     inkscape:window-y="41"
     inkscape:window-maximized="1"
     inkscape:current-layer="layer1"
     units="px"
     height="400px" />
  <defs
     id="defs2">
    <rect
       x="-18.767179"
       y="229.62196"
       width="971.47748"
       height="454.82809"
       id="rect6992" />
    <rect
       x="769.45435"
       y="592.82208"
       width="22.698662"
       height="110.19918"
       id="rect19443" />
    <rect
       x="715.36072"
       y="462.55576"
       width="99.355652"
       height="136.89001"
       id="rect14781" />
    <linearGradient
       x1="0"
       y1="0"
       x2="1"
       y2="0"
       gradientUnits="userSpaceOnUse"
       gradientTransform="matrix(6.2176065,316.53268,316.53268,-6.2176065,307.05798,0.2242669)"
       spreadMethod="pad"
       id="linearGradient852">
      <stop
         style="stop-opacity:1;stop-color:#ffffff"
         offset="0"
         id="stop844" />
      <stop
         style="stop-opacity:1;stop-color:#ffffff"
         offset="0.217219"
         id="stop846" />
      <stop
         style="stop-opacity:1;stop-color:#006699"
         offset="0.777729"
         id="stop848" />
      <stop
         style="stop-opacity:1;stop-color:#006699"
         offset="1"
         id="stop850" />
    </linearGradient>
    <clipPath
       clipPathUnits="userSpaceOnUse"
       id="clipPath862">
      <path
         d="M 0,300 H 620 V 0 H 0 Z"
         id="path860" />
    </clipPath>
    <clipPath
       clipPathUnits="userSpaceOnUse"
       id="clipPath876">
      <path
         d="m 10,44.974 h 255.642 v 90.821 H 10 Z"
         id="path874" />
    </clipPath>
    <clipPath
       clipPathUnits="userSpaceOnUse"
       id="clipPath984">
      <path
         d="m 264.59,44.369 h 90.82 v 90.82 h -90.82 z"
         id="path982" />
    </clipPath>
    <clipPath
       clipPathUnits="userSpaceOnUse"
       id="clipPath1082">
      <path
         d="m 389.312,46.545 h 220.687 v 87.072 H 389.312 Z"
         id="path1080" />
    </clipPath>
    <linearGradient
       inkscape:collect="always"
       xlink:href="#linearGradient852"
       id="linearGradient74793"
       gradientUnits="userSpaceOnUse"
       x1="312.92731"
       y1="0.7079761"
       x2="312.92731"
       y2="205.61856" />
    <linearGradient
       inkscape:collect="always"
       xlink:href="#linearGradient852"
       id="linearGradient12729"
       gradientUnits="userSpaceOnUse"
       x1="312.92731"
       y1="0.7079761"
       x2="312.92731"
       y2="205.61856" />
    <linearGradient
       inkscape:collect="always"
       xlink:href="#linearGradient852"
       id="linearGradient12731"
       gradientUnits="userSpaceOnUse"
       x1="312.92731"
       y1="0.7079761"
       x2="312.92731"
       y2="205.61856" />
    <linearGradient
       inkscape:collect="always"
       xlink:href="#linearGradient852"
       id="linearGradient12733"
       gradientUnits="userSpaceOnUse"
       x1="312.92731"
       y1="0.7079761"
       x2="312.92731"
       y2="205.61856" />
    <linearGradient
       inkscape:collect="always"
       xlink:href="#linearGradient852"
       id="linearGradient12735"
       gradientUnits="userSpaceOnUse"
       x1="312.92731"
       y1="0.7079761"
       x2="312.92731"
       y2="205.61856" />
  </defs>
  <g
     inkscape:label="Ebene 1"
     inkscape:groupmode="layer"
     id="layer1">
    <g
       id="g830"
       inkscape:label="splash"
       transform="matrix(0.35277777,0,0,-0.35277777,4.5474805e-5,105.83333)">
      <g
         id="g832"
         style="opacity:1;fill:url(#linearGradient74793);fill-opacity:1;stroke-width:1.00063;stroke-miterlimit:4;stroke-dasharray:none"
         inkscape:export-filename="C:\Users\Alex\Uni\TU\Diplomarbeit\GUI\Simulation GUI\icons\splash.png"
         inkscape:export-xdpi="72"
         inkscape:export-ydpi="72">
        <g
           id="g834"
           style="fill:url(#linearGradient12735);fill-opacity:1;stroke-width:1.00063;stroke-miterlimit:4;stroke-dasharray:none">
          <g
             id="g840"
             style="fill:url(#linearGradient12733);fill-opacity:1;stroke-width:1.00063;stroke-miterlimit:4;stroke-dasharray:none">
            <g
               id="g842"
               style="fill:url(#linearGradient12731);fill-opacity:1;stroke-width:1.00063;stroke-miterlimit:4;stroke-dasharray:none">
              <path
                 d="M 25,300 C 11.193,300 0,288.807 0,275 V 275 25 C 0,11.193 11.193,0 25,0 v 0 h 570 c 13.807,0 25,11.193 25,25 v 0 250 c 0,13.807 -11.193,25 -25,25 v 0 z"
                 style="fill:url(#linearGradient12729);fill-opacity:1;stroke:none;stroke-width:1.00063;stroke-miterlimit:4;stroke-dasharray:none"
                 id="path854" />
            </g>
          </g>
        </g>
      </g>
      <g
         id="g856">
        <g
           id="g858"
           clip-path="url(#clipPath862)">
          <g
             id="g864"
             transform="translate(595)">
            <path
               d="m 0,0 h -570 c -13.807,0 -25,11.193 -25,25 v 250 c 0,13.807 11.193,25 25,25 H 0 c 13.807,0 25,-11.193 25,-25 V 25 C 25,11.193 13.807,0 0,0 Z"
               style="fill:none;stroke:#000000;stroke-width:0.5;stroke-linecap:butt;stroke-linejoin:miter;stroke-miterlimit:10;stroke-dasharray:none;stroke-opacity:1"
               id="path866" />
          </g>
          <path
             d="M 96,52 H 14 v 82 h 82 z"
             style="fill:#ffffff;fill-opacity:1;fill-rule:nonzero;stroke:none"
             id="path868" />
        </g>
      </g>
      <g
         id="g870">
        <g
           id="g872"
           clip-path="url(#clipPath876)">
          <g
             id="g878"
             transform="translate(248.9807,95.7456)">
            <path
               d="M 0,0 V 2.168 H -11.173 V 0 h 4.379 V -13.742 H -4.38 V 0 Z"
               style="fill:#636466;fill-opacity:1;fill-rule:evenodd;stroke:none"
               id="path880" />
          </g>
          <g
             id="g882"
             transform="translate(238.2977,82.0042)">
            <path
               d="M 0,0 -5.831,15.909 H -7.775 L -13.608,0 h 2.571 l 1.094,3.195 h 6.279 L -2.57,0 Z m -4.334,5.251 h -4.893 l 2.479,7.061 z"
               style="fill:#636466;fill-opacity:1;fill-rule:evenodd;stroke:none"
               id="path884" />
          </g>
          <g
             id="g886"
             transform="translate(225.1858,95.7456)">
            <path
               d="M 0,0 V 2.168 H -11.172 V 0 h 4.38 v -13.742 h 2.414 V 0 Z"
               style="fill:#636466;fill-opacity:1;fill-rule:evenodd;stroke:none"
               id="path888" />
          </g>
          <path
             d="m 211.268,97.913 h -2.414 V 82.004 h 2.414 z"
             style="fill:#636466;fill-opacity:1;fill-rule:evenodd;stroke:none"
             id="path890" />
          <g
             id="g892"
             transform="translate(205.6151,86.5402)">
            <path
               d="m 0,0 c 0,1.363 -0.424,2.502 -1.295,3.262 -0.67,0.604 -1.497,0.96 -2.971,1.184 l -1.81,0.268 c -0.738,0.112 -1.386,0.38 -1.789,0.738 -0.424,0.38 -0.602,0.893 -0.602,1.475 0,1.407 1.027,2.479 2.904,2.479 1.341,0 2.481,-0.29 3.463,-1.228 l 1.541,1.518 c -1.362,1.274 -2.836,1.811 -4.936,1.811 -3.307,0 -5.318,-1.899 -5.318,-4.67 0,-1.296 0.38,-2.301 1.161,-3.039 0.693,-0.648 1.721,-1.095 3.017,-1.274 l 1.876,-0.268 c 0.939,-0.133 1.341,-0.29 1.744,-0.669 0.424,-0.38 0.626,-0.961 0.626,-1.654 0,-1.542 -1.208,-2.435 -3.285,-2.435 -1.631,0 -2.905,0.357 -4.066,1.519 l -1.609,-1.587 c 1.519,-1.541 3.239,-2.1 5.63,-2.1 C -2.389,-4.67 0,-2.927 0,0"
               style="fill:#636466;fill-opacity:1;fill-rule:evenodd;stroke:none"
               id="path894" />
          </g>
          <g
             id="g896"
             transform="translate(192.6375,82.0042)">
            <path
               d="m 0,0 -3.664,7.039 c 1.788,0.491 3.173,1.943 3.173,4.222 0,2.704 -1.922,4.648 -4.938,4.648 h -6.167 V 0 h 2.413 v 6.703 h 3.016 L -2.815,0 Z m -2.905,11.239 c 0,-1.564 -1.094,-2.48 -2.703,-2.48 h -3.575 v 4.983 h 3.575 c 1.609,0 2.703,-0.939 2.703,-2.503"
               style="fill:#636466;fill-opacity:1;fill-rule:evenodd;stroke:none"
               id="path898" />
          </g>
          <g
             id="g900"
             transform="translate(177.739,82.0042)">
            <path
               d="m 0,0 v 2.168 h -7.753 v 4.781 h 6.614 v 2.145 h -6.614 v 4.648 H 0 v 2.167 H -10.165 V 0 Z"
               style="fill:#636466;fill-opacity:1;fill-rule:evenodd;stroke:none"
               id="path902" />
          </g>
          <g
             id="g904"
             transform="translate(165.3834,97.9133)">
            <path
               d="M 0,0 H -2.548 L -6.212,-11.574 -9.876,0 h -2.503 l 5.229,-15.909 h 1.877 z"
               style="fill:#636466;fill-opacity:1;fill-rule:evenodd;stroke:none"
               id="path906" />
          </g>
          <path
             d="m 150.816,97.913 h -2.413 V 82.004 h 2.413 z"
             style="fill:#636466;fill-opacity:1;fill-rule:evenodd;stroke:none"
             id="path908" />
          <g
             id="g910"
             transform="translate(144.2481,82.0042)">
            <path
               d="M 0,0 V 15.909 H -2.413 V 4.737 l -7.351,11.172 h -2.212 V 0 h 2.413 V 11.194 L -2.212,0 Z"
               style="fill:#636466;fill-opacity:1;fill-rule:evenodd;stroke:none"
               id="path912" />
          </g>
          <g
             id="g914"
             transform="translate(128.3648,87.3671)">
            <path
               d="M 0,0 V 10.546 H -2.414 V 0.111 c 0,-2.122 -1.318,-3.441 -3.306,-3.441 -1.989,0 -3.285,1.319 -3.285,3.441 v 10.435 h -2.413 V 0 c 0,-3.285 2.458,-5.497 5.698,-5.497 C -2.481,-5.497 0,-3.285 0,0"
               style="fill:#636466;fill-opacity:1;fill-rule:evenodd;stroke:none"
               id="path916" />
          </g>
          <path
             d="m 230.052,101.979 h -2.055 v -2.413 h 2.055 z"
             style="fill:#636466;fill-opacity:1;fill-rule:evenodd;stroke:none"
             id="path918" />
          <path
             d="m 234.879,101.979 h -2.056 v -2.413 h 2.056 z"
             style="fill:#636466;fill-opacity:1;fill-rule:evenodd;stroke:none"
             id="path920" />
          <g
             id="g922"
             transform="translate(234.9969,110.6733)">
            <path
               d="M 0,0 V 15.909 H -2.413 V 9.116 H -8.87 v 6.793 h -2.414 V 0 h 2.414 v 6.949 h 6.457 V 0 Z"
               style="fill:#636466;fill-opacity:1;fill-rule:evenodd;stroke:none"
               id="path924" />
          </g>
          <g
             id="g926"
             transform="translate(220.4949,115.4324)">
            <path
               d="m 0,0 h -2.435 c -0.38,-1.608 -1.475,-2.725 -3.239,-2.725 -0.939,0 -1.789,0.356 -2.346,0.96 -0.783,0.849 -0.962,1.765 -0.962,4.96 0,3.195 0.179,4.111 0.962,4.961 0.557,0.603 1.407,0.96 2.346,0.96 1.764,0 2.837,-1.117 3.217,-2.726 H 0 c -0.557,3.173 -2.748,4.893 -5.674,4.893 -1.654,0 -3.084,-0.603 -4.179,-1.698 -1.564,-1.564 -1.542,-3.329 -1.542,-6.39 0,-3.061 -0.022,-4.826 1.542,-6.39 1.095,-1.095 2.525,-1.698 4.179,-1.698 2.881,0 5.138,1.72 5.674,4.893"
               style="fill:#636466;fill-opacity:1;fill-rule:evenodd;stroke:none"
               id="path928" />
          </g>
          <g
             id="g930"
             transform="translate(206.4432,115.2089)">
            <path
               d="m 0,0 c 0,1.363 -0.424,2.502 -1.296,3.262 -0.67,0.604 -1.497,0.961 -2.972,1.184 l -1.809,0.268 c -0.737,0.112 -1.386,0.38 -1.788,0.738 -0.424,0.38 -0.603,0.893 -0.603,1.475 0,1.407 1.028,2.479 2.904,2.479 1.342,0 2.481,-0.29 3.464,-1.228 l 1.542,1.519 c -1.364,1.274 -2.836,1.81 -4.938,1.81 -3.307,0 -5.318,-1.899 -5.318,-4.67 0,-1.295 0.379,-2.301 1.162,-3.039 0.692,-0.648 1.72,-1.094 3.017,-1.274 l 1.876,-0.267 c 0.939,-0.134 1.34,-0.291 1.743,-0.67 0.425,-0.38 0.625,-0.961 0.625,-1.654 0,-1.542 -1.206,-2.435 -3.284,-2.435 -1.631,0 -2.905,0.357 -4.067,1.519 L -11.35,-2.57 c 1.518,-1.541 3.24,-2.1 5.63,-2.1 C -2.391,-4.67 0,-2.927 0,0"
               style="fill:#636466;fill-opacity:1;fill-rule:evenodd;stroke:none"
               id="path932" />
          </g>
          <path
             d="m 192.346,126.582 h -2.413 v -15.909 h 2.413 z"
             style="fill:#636466;fill-opacity:1;fill-rule:evenodd;stroke:none"
             id="path934" />
          <g
             id="g936"
             transform="translate(185.7783,110.6733)">
            <path
               d="M 0,0 V 15.909 H -2.413 V 4.737 l -7.352,11.172 h -2.211 V 0 h 2.412 V 11.194 L -2.212,0 Z"
               style="fill:#636466;fill-opacity:1;fill-rule:evenodd;stroke:none"
               id="path938" />
          </g>
          <g
             id="g940"
             transform="translate(169.6458,110.6733)">
            <path
               d="M 0,0 V 15.909 H -2.413 V 9.116 H -8.87 v 6.793 h -2.413 V 0 h 2.413 v 6.949 h 6.457 V 0 Z"
               style="fill:#636466;fill-opacity:1;fill-rule:evenodd;stroke:none"
               id="path942" />
          </g>
          <g
             id="g944"
             transform="translate(155.1449,115.4324)">
            <path
               d="m 0,0 h -2.436 c -0.379,-1.608 -1.474,-2.725 -3.239,-2.725 -0.938,0 -1.788,0.356 -2.346,0.96 -0.783,0.849 -0.961,1.765 -0.961,4.96 0,3.195 0.178,4.111 0.961,4.961 0.558,0.603 1.408,0.96 2.346,0.96 1.765,0 2.837,-1.117 3.217,-2.726 H 0 c -0.559,3.173 -2.748,4.893 -5.675,4.893 -1.654,0 -3.084,-0.603 -4.178,-1.698 -1.565,-1.564 -1.542,-3.329 -1.542,-6.39 0,-3.061 -0.023,-4.826 1.542,-6.39 1.094,-1.095 2.524,-1.698 4.178,-1.698 2.882,0 5.139,1.72 5.675,4.893"
               style="fill:#636466;fill-opacity:1;fill-rule:evenodd;stroke:none"
               id="path946" />
          </g>
          <g
             id="g948"
             transform="translate(141.0291,110.6733)">
            <path
               d="m 0,0 v 2.168 h -7.754 v 4.781 h 6.614 v 2.144 h -6.614 v 4.648 H 0 v 2.168 H -10.166 V 0 Z"
               style="fill:#636466;fill-opacity:1;fill-rule:evenodd;stroke:none"
               id="path950" />
          </g>
          <g
             id="g952"
             transform="translate(128.1186,124.4144)">
            <path
               d="M 0,0 V 2.168 H -11.172 V 0 h 4.38 v -13.741 h 2.413 V 0 Z"
               style="fill:#636466;fill-opacity:1;fill-rule:evenodd;stroke:none"
               id="path954" />
          </g>
          <g
             id="g956"
             transform="translate(249.3186,110.6733)">
            <path
               d="m 0,0 v 2.168 h -7.752 v 4.781 h 6.613 v 2.144 h -6.613 v 4.648 H 0 v 2.168 H -10.165 V 0 Z"
               style="fill:#636466;fill-opacity:1;fill-rule:evenodd;stroke:none"
               id="path958" />
          </g>
          <g
             id="g960"
             transform="translate(135.9169,70.3152)">
            <path
               d="M 0,0 H -2.548 L -5.318,-11.373 -8.513,0 h -1.944 L -13.652,-11.373 -16.423,0 h -2.547 l 4.156,-15.909 h 2.1 l 3.218,11.149 3.24,-11.149 h 2.1 z"
               style="fill:#636466;fill-opacity:1;fill-rule:evenodd;stroke:none"
               id="path962" />
          </g>
          <g
             id="g964"
             transform="translate(170.2491,54.4063)">
            <path
               d="M 0,0 V 15.909 H -2.413 V 4.737 l -7.35,11.172 h -2.212 V 0 h 2.413 V 11.194 L -2.211,0 Z"
               style="fill:#636466;fill-opacity:1;fill-rule:evenodd;stroke:none"
               id="path966" />
          </g>
          <g
             id="g968"
             transform="translate(154.9727,54.4063)">
            <path
               d="m 0,0 v 2.167 h -7.754 v 4.782 h 6.614 v 2.145 h -6.614 v 4.647 H 0 v 2.168 H -10.167 V 0 Z"
               style="fill:#636466;fill-opacity:1;fill-rule:evenodd;stroke:none"
               id="path970" />
          </g>
          <path
             d="m 140.651,70.315 h -2.414 V 54.406 h 2.414 z"
             style="fill:#636466;fill-opacity:1;fill-rule:evenodd;stroke:none"
             id="path972" />
          <g
             id="g974"
             transform="translate(91.5976,135.7042)">
            <path
               d="m 0,0 c 5.002,0 9.044,-4.059 9.044,-9.067 l 0.019,-72.49 c 0,-5.007 -4.074,-9.066 -9.075,-9.066 h -72.486 c -5.002,0 -9.063,4.059 -9.063,9.066 l 0.006,72.49 c 0,5.008 4.049,9.067 9.05,9.067 z m -62.347,-21.594 h 9.676 v -32.155 h -9.676 z m -12.247,12.491 h 33.845 v -9.676 h -33.845 z m 20.439,-56.295 h -3.248 l -2.486,-10.058 -2.912,10.058 h -2.329 l -2.913,-10.058 -2.464,10.058 h -3.248 l 4.256,-15.949 h 2.599 l 2.934,9.677 2.935,-9.677 h 2.598 z m 54,-15.949 v 15.949 h -3.114 v -9.766 l -6.317,9.766 h -2.777 v -15.949 h 3.113 v 9.789 l 6.317,-9.789 z m -22.306,0 v 2.778 h -7.392 v 3.875 h 6.294 v 2.778 h -6.294 v 3.74 h 7.392 v 2.778 h -10.506 v -15.949 z m -21.171,15.949 h -3.114 v -15.949 h 3.114 z m 23.954,11.393 -0.511,0.043 c -9.072,0.947 -16.086,8.612 -16.086,17.934 v 26.925 h 9.807 l -0.016,-26.686 c 0,-3.903 2.714,-7.412 6.355,-8.336 0.16,-0.039 0.284,-0.064 0.448,-0.093 z m 2.937,9.801 c 0.147,0.027 0.256,0.044 0.4,0.079 3.642,0.924 6.356,4.433 6.356,8.336 l -0.083,26.686 h 9.869 v -26.826 c 0.01,-9.323 -7.07,-17.075 -16.142,-18.034 l -0.398,-0.041 z"
               style="fill:#036c9b;fill-opacity:1;fill-rule:evenodd;stroke:none"
               id="path976" />
          </g>
        </g>
      </g>
      <g
         id="g978"
         transform="translate(255.01285)">
        <g
           id="g980"
           clip-path="url(#clipPath984)">
          <g
             id="g986"
             transform="translate(345.4078,44.3687)">
            <path
               d="m 0,0 h -70.815 c -5.502,0 -10.003,4.501 -10.003,10.002 v 70.816 c 0,5.501 4.501,10.002 10.003,10.002 H 0 c 5.501,0 10.002,-4.501 10.002,-10.002 V 10.002 C 10.002,4.501 5.501,0 0,0"
               style="fill:#006699;fill-opacity:1;fill-rule:nonzero;stroke:none"
               id="path988" />
          </g>
          <g
             id="g990"
             transform="translate(348.8484,70.0953)">
            <path
               d="m 0,0 v -1.4 h -79.527 c -0.02,0.211 -0.051,0.401 -0.053,0.593 -0.001,0.248 0.021,0.498 0.037,0.807 z"
               style="fill:#ffffff;fill-opacity:1;fill-rule:nonzero;stroke:none"
               id="path992" />
          </g>
          <path
             d="m 288.892,62.507 h 3.061 V 48.865 h -3.061 z"
             style="fill:#ffffff;fill-opacity:1;fill-rule:nonzero;stroke:none"
             id="path994" />
          <g
             id="g996"
             transform="translate(307.9992,54.2623)">
            <path
               d="M 0,0 -2.088,5.062 -4.136,0 Z M 5.635,-5.397 H 2.306 L 0.982,-2.299 H -5.076 L -6.328,-5.397 H -9.574 L -3.67,8.245 h 3.236 z"
               style="fill:#ffffff;fill-opacity:1;fill-rule:nonzero;stroke:none"
               id="path998" />
          </g>
          <g
             id="g1000"
             transform="translate(323.4156,60.1994)">
            <path
               d="m 0,0 v -3.871 h 1.675 c 1.206,0 2.013,0.071 2.419,0.214 0.407,0.143 0.726,0.366 0.957,0.67 0.231,0.304 0.346,0.657 0.346,1.061 0,0.496 -0.162,0.905 -0.486,1.228 -0.324,0.323 -0.734,0.524 -1.23,0.605 C 3.316,-0.031 2.581,0 1.478,0 Z M -3.061,-11.334 V 2.308 H 1.85 C 3.712,2.308 4.925,2.24 5.49,2.103 6.359,1.898 7.086,1.453 7.672,0.767 8.258,0.082 8.551,-0.803 8.551,-1.889 8.551,-2.727 8.382,-3.431 8.044,-4.001 7.706,-4.572 7.277,-5.02 6.757,-5.346 6.236,-5.672 5.707,-5.887 5.17,-5.993 4.439,-6.123 3.381,-6.188 1.995,-6.188 H 0 v -5.146 z"
               style="fill:#ffffff;fill-opacity:1;fill-rule:nonzero;stroke:none"
               id="path1002" />
          </g>
          <g
             id="g1004"
             transform="translate(306.41,87.9026)">
            <path
               d="m 0,0 c -0.963,-0.33 -1.839,-0.696 -2.27,-1.792 -0.309,-0.786 -1.087,-1.086 -1.948,-1.069 -2.431,0.045 -4.649,0.823 -6.628,2.172 -2.573,1.753 -5.218,3.428 -7.326,5.785 -6.247,6.984 -5.35,18.685 1.894,24.303 3.038,2.356 6.568,3.347 10.346,3.554 1.233,0.067 2.469,0.076 3.704,0.086 1.461,0.011 2.319,-0.732 2.498,-2.175 0.058,-0.464 0.113,-0.797 0.715,-0.792 0.604,0.004 0.57,0.394 0.624,0.786 0.291,2.094 -0.228,3.003 -2.176,3.79 -1.896,0.767 -2.838,2.238 -2.747,4.288 0.085,1.911 1.254,3.505 2.946,4.018 1.809,0.549 3.92,-0.069 4.961,-1.604 0.564,-0.833 1.212,-1.458 2.05,-2.019 2.49,-1.664 2.25,-5.471 -0.431,-6.862 -0.748,-0.387 -1.052,-0.785 -0.934,-1.587 0.053,-0.358 0.009,-0.731 0.009,-1.197 0.683,0.264 1.243,0.561 1.52,1.225 0.639,1.534 1.448,2.099 3.093,1.949 2.704,-0.245 5.235,-1.051 7.374,-2.785 2.45,-1.985 4.757,-4.133 6.76,-6.582 C 30.542,15.538 27.895,3.158 18.786,-1.086 16.278,-2.254 13.609,-2.718 10.866,-2.832 10.503,-2.847 10.139,-2.89 9.779,-2.941 8.914,-3.063 8.457,-3.576 8.316,-4.436 8.126,-5.585 8.23,-6.743 8.151,-7.894 8.108,-8.512 8.1,-9.142 7.964,-9.741 c -0.641,-2.826 -4.322,-4.012 -6.421,-2.022 -0.803,0.762 -1.619,1.389 -2.616,1.893 -1.58,0.797 -2.345,2.214 -2.256,4.02 0.09,1.823 0.906,3.21 2.648,3.849 0.993,0.364 0.958,1.026 0.83,1.817 0.019,0.047 0.039,0.095 0.058,0.142 C 0.138,-0.028 0.069,-0.014 0,0"
               style="fill:#ffffff;fill-opacity:1;fill-rule:nonzero;stroke:none"
               id="path1006" />
          </g>
          <g
             id="g1008"
             transform="translate(310.9661,105.2305)">
            <path
               d="m 0,0 h 0.06 c 0,4.539 -0.001,9.077 0.001,13.616 0,0.637 -0.733,1.5 -1.308,1.53 -0.563,0.03 -0.994,-0.557 -1.028,-1.41 -0.009,-0.225 -0.002,-0.451 -0.002,-0.677 0,-9.782 0.001,-19.564 0,-29.347 0,-1.9 -0.59,-2.781 -2.327,-3.495 -0.182,-0.075 -0.372,-0.129 -0.549,-0.214 -1.694,-0.814 -2.518,-2.886 -1.853,-4.649 0.673,-1.79 2.486,-2.755 4.255,-2.266 1.701,0.469 2.721,1.939 2.798,4.06 0.041,1.127 -0.004,2.26 0.105,3.378 0.161,1.659 0.607,2.088 2.252,2.286 1.03,0.125 2.074,0.127 3.103,0.255 3.484,0.432 6.647,1.626 9.204,4.126 6.147,6.012 6.393,15.868 0.543,22.387 -2.668,2.973 -5.952,4.842 -9.972,5.243 -1.445,0.144 -2.365,-0.558 -2.491,-1.786 -0.117,-1.138 0.638,-2.029 1.943,-2.223 4.536,-0.675 7.782,-3.198 9.952,-7.14 5.157,-9.372 -2.29,-20.756 -11.763,-20.152 -1.912,0.122 -2.92,1.051 -2.922,2.95 C -0.003,-9.019 0,-4.509 0,0"
               style="fill:#086a9c;fill-opacity:1;fill-rule:nonzero;stroke:none"
               id="path1010" />
          </g>
          <g
             id="g1012"
             transform="translate(314.62,102.4145)">
            <path
               d="m 0,0 c 0,-4.059 0.021,-8.119 -0.019,-12.178 -0.007,-0.76 0.231,-0.913 0.901,-0.76 0.764,0.175 1.557,0.243 2.307,0.461 7.119,2.071 10.967,11.135 7.635,17.957 C 9.589,8.009 7.946,10.086 4.935,10.481 3.573,10.66 2.465,11.018 1.923,12.484 1.668,13.175 0.783,13.105 0.194,13.043 -0.227,12.998 0.014,12.364 0.012,12.008 -0.007,8.005 0,4.003 0,0"
               style="fill:#086a9c;fill-opacity:1;fill-rule:nonzero;stroke:none"
               id="path1014" />
          </g>
          <g
             id="g1016"
             transform="translate(303.0321,103.1111)">
            <path
               d="m 0,0 c 0,4.143 0,8.285 0,12.428 0,1.2 -0.014,1.205 -1.156,0.936 -4.096,-0.966 -6.956,-3.501 -8.934,-7.127 -1.574,-2.884 -2.321,-5.942 -1.425,-9.188 0.921,-3.338 2.718,-5.987 6.233,-7.047 0.643,-0.194 1.321,-0.269 1.964,-0.46 1.108,-0.328 1.913,-1.015 2.01,-2.224 0.057,-0.712 0.513,-0.631 0.93,-0.65 0.59,-0.026 0.366,0.466 0.367,0.735 C 0.004,-8.398 0,-4.199 0,0"
               style="fill:#086a9c;fill-opacity:1;fill-rule:nonzero;stroke:none"
               id="path1018" />
          </g>
          <g
             id="g1020"
             transform="translate(306.0669,103.83)">
            <path
               d="m 0,0 c 0,4.708 0.008,9.416 -0.004,14.124 -0.005,1.759 -0.595,2.329 -2.335,2.336 -1.544,0.005 -3.086,0.004 -4.625,-0.19 -4.475,-0.564 -8.286,-2.358 -11.09,-6.011 -5.806,-7.562 -3.636,-18.812 4.613,-23.959 1.864,-1.163 3.873,-1.915 6.078,-2.037 1.366,-0.075 2.261,0.668 2.361,1.862 0.092,1.084 -0.559,1.914 -1.93,2.154 -2.675,0.47 -4.908,1.758 -6.818,3.611 -2.636,2.556 -4.445,5.584 -4.746,9.339 -0.22,2.751 0.761,5.204 2.08,7.532 2.444,4.316 6.036,6.89 11.077,7.169 2.702,0.151 3.044,-0.204 3.044,-2.966 0,-9.077 0,-18.155 0.002,-27.233 0,-0.999 0.409,-1.559 1.127,-1.576 0.711,-0.017 1.139,0.552 1.165,1.552 C 0.004,-14.096 0,-13.898 0,-13.701 V 0"
               style="fill:#086a9c;fill-opacity:1;fill-rule:nonzero;stroke:none"
               id="path1022" />
          </g>
          <g
             id="g1024"
             transform="translate(303.7727,126.5484)">
            <path
               d="M 0,0 C 0,-2.084 1.649,-3.666 3.808,-3.653 5.87,-3.641 7.431,-1.966 7.412,0.215 7.394,2.216 5.71,3.825 3.621,3.836 1.557,3.848 0,2.199 0,0"
               style="fill:#086a9c;fill-opacity:1;fill-rule:nonzero;stroke:none"
               id="path1026" />
          </g>
          <g
             id="g1028"
             transform="translate(288.5789,107.7563)">
            <path
               d="M 0,0 C 0.108,0.035 0.146,0.036 0.154,0.052 0.287,0.33 0.418,0.609 0.547,0.89 1.97,4.01 4.141,6.428 7.182,8.042 c 2.058,1.091 4.268,1.671 6.547,2.046 0.233,0.038 0.7,-0.167 0.667,0.358 -0.028,0.442 -0.186,0.843 -0.721,0.887 -0.472,0.038 -0.951,0.104 -1.42,0.068 C 6.183,10.932 0.993,6.111 0,0"
               style="fill:#086a9c;fill-opacity:1;fill-rule:nonzero;stroke:none"
               id="path1030" />
          </g>
          <g
             id="g1032"
             transform="translate(315.0475,87.2771)">
            <path
               d="m 0,0 c 0.634,-0.645 0.93,-0.78 1.728,-0.817 5.51,-0.262 10.162,2.791 12.305,8.088 0.212,0.522 0.475,1.04 0.486,1.916 C 11.365,3.158 6.187,0.775 0,0"
               style="fill:#086a9c;fill-opacity:1;fill-rule:nonzero;stroke:none"
               id="path1034" />
          </g>
          <g
             id="g1036"
             transform="translate(310.9661,105.2305)">
            <path
               d="m 0,0 c 0,-4.509 -0.003,-9.019 0.001,-13.528 0.002,-1.899 1.01,-2.828 2.922,-2.95 9.473,-0.604 16.92,10.78 11.763,20.152 -2.17,3.942 -5.416,6.465 -9.952,7.14 -1.305,0.194 -2.06,1.085 -1.943,2.223 0.126,1.228 1.046,1.93 2.491,1.786 4.02,-0.401 7.304,-2.27 9.972,-5.243 5.85,-6.519 5.604,-16.375 -0.543,-22.387 -2.557,-2.5 -5.72,-3.694 -9.204,-4.126 -1.029,-0.128 -2.073,-0.13 -3.103,-0.255 -1.645,-0.198 -2.091,-0.627 -2.252,-2.286 -0.109,-1.118 -0.064,-2.251 -0.105,-3.378 -0.077,-2.121 -1.097,-3.591 -2.798,-4.06 -1.769,-0.489 -3.582,0.476 -4.255,2.266 -0.665,1.763 0.159,3.835 1.853,4.649 0.177,0.085 0.367,0.139 0.549,0.214 1.737,0.714 2.327,1.595 2.327,3.495 0.001,9.783 0,19.565 0,29.347 0,0.226 -0.007,0.452 0.002,0.677 0.034,0.853 0.465,1.44 1.028,1.41 0.575,-0.03 1.308,-0.893 1.308,-1.53 C 0.059,9.077 0.06,4.539 0.06,0 Z"
               style="fill:#006699;fill-opacity:1;fill-rule:nonzero;stroke:none"
               id="path1038" />
          </g>
          <g
             id="g1040"
             transform="translate(314.62,102.4145)">
            <path
               d="m 0,0 c 0,4.003 -0.007,8.005 0.012,12.008 0.002,0.356 -0.239,0.99 0.182,1.035 0.589,0.062 1.474,0.132 1.729,-0.559 0.542,-1.466 1.65,-1.824 3.012,-2.003 3.011,-0.395 4.654,-2.472 5.889,-5.001 3.332,-6.822 -0.516,-15.886 -7.635,-17.957 -0.75,-0.218 -1.543,-0.286 -2.307,-0.461 -0.67,-0.153 -0.908,0 -0.901,0.76 C 0.021,-8.119 0,-4.059 0,0"
               style="fill:#006699;fill-opacity:1;fill-rule:nonzero;stroke:none"
               id="path1042" />
          </g>
          <g
             id="g1044"
             transform="translate(303.0321,103.1111)">
            <path
               d="m 0,0 c 0,-4.199 0.004,-8.398 -0.011,-12.597 -0.001,-0.269 0.223,-0.761 -0.367,-0.735 -0.417,0.019 -0.873,-0.062 -0.93,0.65 -0.097,1.209 -0.902,1.896 -2.01,2.224 -0.643,0.191 -1.321,0.266 -1.964,0.46 -3.515,1.06 -5.312,3.709 -6.233,7.047 -0.896,3.246 -0.149,6.304 1.425,9.188 1.978,3.626 4.838,6.161 8.934,7.127 C -0.014,13.633 0,13.628 0,12.428 0,8.285 0,4.143 0,0"
               style="fill:#006699;fill-opacity:1;fill-rule:nonzero;stroke:none"
               id="path1046" />
          </g>
          <g
             id="g1048"
             transform="translate(306.0671,103.83)">
            <path
               d="m 0,0 v -13.701 c 0,-0.197 0.004,-0.395 -0.001,-0.592 -0.026,-1 -0.455,-1.569 -1.165,-1.552 -0.718,0.017 -1.127,0.577 -1.127,1.576 -0.003,9.078 -10e-4,18.156 -0.002,27.233 0,2.762 -0.342,3.117 -3.045,2.966 -5.04,-0.279 -8.632,-2.853 -11.076,-7.169 -1.319,-2.328 -2.3,-4.781 -2.08,-7.532 0.301,-3.755 2.11,-6.783 4.745,-9.339 1.911,-1.853 4.144,-3.141 6.819,-3.611 1.371,-0.24 2.022,-1.07 1.931,-2.154 -0.101,-1.194 -0.996,-1.937 -2.363,-1.862 -2.204,0.122 -4.213,0.874 -6.077,2.037 -8.249,5.147 -10.419,16.397 -4.613,23.959 2.804,3.653 6.615,5.447 11.09,6.011 1.538,0.194 3.081,0.195 4.625,0.19 1.74,-0.007 2.33,-0.577 2.335,-2.336 C 0.008,9.416 0,4.708 0,0"
               style="fill:#006699;fill-opacity:1;fill-rule:nonzero;stroke:none"
               id="path1050" />
          </g>
          <g
             id="g1052"
             transform="translate(303.7727,126.5484)">
            <path
               d="M 0,0 C 0,2.199 1.557,3.848 3.621,3.836 5.71,3.825 7.394,2.216 7.412,0.215 7.431,-1.966 5.87,-3.641 3.808,-3.653 1.649,-3.666 0,-2.084 0,0"
               style="fill:#006699;fill-opacity:1;fill-rule:nonzero;stroke:none"
               id="path1054" />
          </g>
          <g
             id="g1056"
             transform="translate(288.5789,107.7563)">
            <path
               d="m 0,0 c 0.993,6.111 6.183,10.932 12.255,11.401 0.469,0.036 0.948,-0.03 1.42,-0.068 0.535,-0.044 0.693,-0.445 0.721,-0.887 0.033,-0.525 -0.434,-0.32 -0.667,-0.358 C 11.45,9.713 9.24,9.133 7.182,8.042 4.141,6.428 1.97,4.01 0.547,0.89 0.418,0.609 0.287,0.33 0.154,0.052 0.146,0.036 0.108,0.035 0,0"
               style="fill:#006699;fill-opacity:1;fill-rule:nonzero;stroke:none"
               id="path1058" />
          </g>
          <g
             id="g1060"
             transform="translate(315.0475,87.2771)">
            <path
               d="M 0,0 C 6.187,0.775 11.365,3.158 14.519,9.187 14.508,8.311 14.245,7.793 14.033,7.271 11.89,1.974 7.238,-1.079 1.728,-0.817 0.93,-0.78 0.634,-0.645 0,0"
               style="fill:#006699;fill-opacity:1;fill-rule:nonzero;stroke:none"
               id="path1062" />
          </g>
        </g>
      </g>
      <text
         transform="scale(1,-1)"
         style="font-variant:normal;font-weight:normal;font-stretch:normal;font-size:72.6563px;font-family:'Myriad Pro';-inkscape-font-specification:MyriadPro-Regular;writing-mode:lr-tb;fill:#ffffff;fill-opacity:1;fill-rule:nonzero;stroke:none"
         id="text1066"
         x="90.150826"
         y="-212.07504"><tspan
           sodipodi:role="line"
           id="tspan1064"
           x="90.150826"
           y="-212.07504"
           style="fill:#feffff;fill-opacity:1">BCA–GUIDE</tspan></text>
      <text
         transform="scale(1,-1)"
         style="font-variant:normal;font-weight:normal;font-stretch:normal;font-size:20px;font-family:'Myriad Pro';-inkscape-font-specification:MyriadPro-Regular;text-align:center;writing-mode:lr-tb;text-anchor:middle;fill:#ffffff;fill-opacity:1;fill-rule:nonzero;stroke:none"
         id="text1066-3"
         x="309.56055"
         y="-179.79161"><tspan
           sodipodi:role="line"
           id="tspan1064-0"
           x="309.56055"
           y="-179.79161"
           style="font-size:20px;text-align:center;text-anchor:middle;fill:#feffff;fill-opacity:1"><tspan
   style="font-style:normal;font-variant:normal;font-weight:bold;font-stretch:normal;font-family:'Myriad Pro';-inkscape-font-specification:'Myriad Pro Bold';text-align:center;text-anchor:middle"
   id="tspan65825">B</tspan>inary <tspan
   style="font-style:normal;font-variant:normal;font-weight:bold;font-stretch:normal;font-family:'Myriad Pro';-inkscape-font-specification:'Myriad Pro Bold';text-align:center;text-anchor:middle"
   id="tspan67237">C</tspan>ollision <tspan
   style="font-style:normal;font-variant:normal;font-weight:bold;font-stretch:normal;font-family:'Myriad Pro';-inkscape-font-specification:'Myriad Pro Bold';text-align:center;text-anchor:middle"
   id="tspan68535">A</tspan>pproximation – <tspan
   style="font-style:normal;font-variant:normal;font-weight:bold;font-stretch:normal;font-family:'Myriad Pro';-inkscape-font-specification:'Myriad Pro Bold';text-align:center;text-anchor:middle"
   id="tspan26903">G</tspan>raphical <tspan
   style="font-style:normal;font-variant:normal;font-weight:bold;font-stretch:normal;font-family:'Myriad Pro';-inkscape-font-specification:'Myriad Pro Bold';text-align:center;text-anchor:middle"
   id="tspan27829">U</tspan>ser <tspan
   style="font-style:normal;font-variant:normal;font-weight:bold;font-stretch:normal;font-family:'Myriad Pro';-inkscape-font-specification:'Myriad Pro Bold';text-align:center;text-anchor:middle"
   id="tspan29379">I</tspan>nterface</tspan><tspan
           sodipodi:role="line"
           x="309.56055"
           y="-154.79161"
           style="font-size:20px;text-align:center;text-anchor:middle;fill:#feffff;fill-opacity:1"
           id="tspan38487">for <tspan
   style="font-style:normal;font-variant:normal;font-weight:bold;font-stretch:normal;font-family:'Myriad Pro';-inkscape-font-specification:'Myriad Pro Bold';text-align:center;text-anchor:middle"
   id="tspan30533">D</tspan>isplaying and <tspan
   style="font-style:normal;font-variant:normal;font-weight:bold;font-stretch:normal;font-family:'Myriad Pro';-inkscape-font-specification:'Myriad Pro Bold';text-align:center;text-anchor:middle"
   id="tspan32545">E</tspan>xecution of simulations</tspan></text>
      <text
         transform="scale(1,-1)"
         style="font-variant:normal;font-weight:normal;font-stretch:normal;font-size:24.2188px;font-family:'Myriad Pro';-inkscape-font-specification:MyriadPro-Regular;writing-mode:lr-tb;fill:#2678bd;fill-opacity:1;fill-rule:nonzero;stroke:none"
         id="text1074"
         x="9.0195999"
         y="-48.369541"><tspan
           x="9.0195999"
           sodipodi:role="line"
           id="tspan1068"
           y="-48.369541" /><tspan
           x="9.0195999"
           sodipodi:role="line"
           id="tspan1070"
           y="-18.096041">www.tuwien.at</tspan><tspan
           sodipodi:role="line"
           id="tspan1072"
           x="9.0195999"
           y="12.177458" /></text>
      <text
         transform="scale(1,-1)"
         style="font-variant:normal;font-weight:normal;font-stretch:normal;font-size:24.2188px;font-family:'Myriad Pro';-inkscape-font-specification:MyriadPro-Regular;writing-mode:lr-tb;fill:#154167;fill-opacity:1;fill-rule:nonzero;stroke:none"
         id="text1074-53"
         x="530.55341"
         y="-241.5515"><tspan
           x="530.55341"
           sodipodi:role="line"
           id="tspan1068-9"
           y="-241.5515" /><tspan
           sodipodi:role="line"
           id="tspan1072-2"
           x="530.55341"
           y="-211.278"
           style="font-size:20px;fill:#154167;fill-opacity:1">v. <tspan
   style="fill:#133a5c;fill-opacity:1"
   id="tspan101028">1</tspan>.3</tspan></text>
      <text
         transform="scale(1,-1)"
         style="font-variant:normal;font-weight:normal;font-stretch:normal;font-size:24.2188px;font-family:'Myriad Pro';-inkscape-font-specification:MyriadPro-Regular;writing-mode:lr-tb;fill:#2678bd;fill-opacity:1;fill-rule:nonzero;stroke:none"
         id="text1074-5"
         x="348.6633"
         y="-20.348816"><tspan
           x="348.6633"
           sodipodi:role="line"
           id="tspan1070-2"
           y="-20.348816">www.iap.tuwien.ac.at</tspan><tspan
           sodipodi:role="line"
           id="tspan1072-3"
           x="348.6633"
           y="9.9246836" /></text>
      <text
         xml:space="preserve"
         transform="matrix(0.75000002,0,0,-0.75000002,-20.198774,488.39517)"
         id="text14779"
         style="font-style:normal;font-weight:normal;font-size:40px;line-height:1.25;font-family:sans-serif;white-space:pre;shape-inside:url(#rect14781);fill:#000000;fill-opacity:1;stroke:none" />
      <text
         xml:space="preserve"
         transform="matrix(0.75000002,0,0,-0.75000002,-20.198774,488.39517)"
         id="text19441"
         style="font-style:normal;font-weight:normal;font-size:40px;line-height:1.25;font-family:sans-serif;white-space:pre;shape-inside:url(#rect19443);fill:#000000;fill-opacity:1;stroke:none" />
      <text
         xml:space="preserve"
         transform="matrix(0.75000002,0,0,-0.75000002,-20.198774,488.39517)"
         id="text6990"
         style="font-style:normal;font-weight:normal;font-size:40px;line-height:1.25;font-family:sans-serif;white-space:pre;shape-inside:url(#rect6992);fill:#000000;fill-opacity:1;stroke:none" />
    </g>
  </g>
</svg>
