<?xml version="1.0" encoding="UTF-8" standalone="no"?>
<!-- Created with Inkscape (http://www.inkscape.org/) -->

<svg
   version="1.1"
   id="svg2"
   xml:space="preserve"
   width="682.66669"
   height="682.66669"
   viewBox="0 0 682.66669 682.66669"
   sodipodi:docname="terminal.svg"
   inkscape:version="1.1.2 (b8e25be833, 2022-02-05)"
   xmlns:inkscape="http://www.inkscape.org/namespaces/inkscape"
   xmlns:sodipodi="http://sodipodi.sourceforge.net/DTD/sodipodi-0.dtd"
   xmlns="http://www.w3.org/2000/svg"
   xmlns:svg="http://www.w3.org/2000/svg"><defs
     id="defs6"><clipPath
       clipPathUnits="userSpaceOnUse"
       id="clipPath16"><path
         d="M 0,512 H 512 V 0 H 0 Z"
         id="path14" /></clipPath></defs><sodipodi:namedview
     id="namedview4"
     pagecolor="#505050"
     bordercolor="#eeeeee"
     borderopacity="1"
     inkscape:pageshadow="0"
     inkscape:pageopacity="0"
     inkscape:pagecheckerboard="0"
     showgrid="false"
     inkscape:zoom="1.0532226"
     inkscape:cx="341.33334"
     inkscape:cy="341.33334"
     inkscape:window-width="1920"
     inkscape:window-height="1001"
     inkscape:window-x="-9"
     inkscape:window-y="41"
     inkscape:window-maximized="1"
     inkscape:current-layer="g8" /><g
     id="g8"
     inkscape:groupmode="layer"
     inkscape:label="play_detached"
     transform="matrix(1.3333333,0,0,-1.3333333,0,682.66667)"><g
       id="g10" /><g
       id="g1027"
       transform="matrix(1.9539403,0,0,1.9539403,-457.18741,27.388986)"><g
         id="g12"
         clip-path="url(#clipPath16)"><g
           id="g18"
           transform="translate(234,511)" /><g
           id="g26"
           transform="translate(244.2324,17.5)"><path
             d="m 0,0 c -4.815,0 -8.732,3.917 -8.732,8.732 v 181.536 c 0,4.815 3.917,8.732 8.732,8.732 h 241.535 c 4.816,0 8.733,-3.917 8.733,-8.732 V 8.732 C 250.268,3.917 246.351,0 241.535,0 Z"
             style="fill:#101325;fill-opacity:1;fill-rule:nonzero;stroke:none"
             id="path28" /></g><g
           id="g30"
           transform="translate(485.7676,217)"><path
             d="m 0,0 h -241.535 c -5.078,0 -9.233,-4.154 -9.233,-9.232 v -181.536 c 0,-5.078 4.155,-9.232 9.233,-9.232 H 0 c 5.078,0 9.232,4.154 9.232,9.232 V -9.232 C 9.232,-4.154 5.078,0 0,0 m 0,-1 c 4.539,0 8.232,-3.693 8.232,-8.232 V -190.768 C 8.232,-195.307 4.539,-199 0,-199 h -241.535 c -4.54,0 -8.233,3.693 -8.233,8.232 V -9.232 c 0,4.539 3.693,8.232 8.233,8.232 H 0"
             style="fill:#000000;fill-opacity:1;fill-rule:nonzero;stroke:none"
             id="path32" /></g></g><text
         transform="matrix(1,0,0,-1,244.6895,132.4902)"
         style="font-variant:normal;font-weight:bold;font-stretch:normal;font-size:120px;font-family:'Myriad Pro';-inkscape-font-specification:MyriadPro-Bold;writing-mode:lr-tb;fill:#ffffff;fill-opacity:1;fill-rule:nonzero;stroke:none"
         id="text36"><tspan
           x="0 71.519997"
           y="0"
           sodipodi:role="line"
           id="tspan34">&gt;_</tspan></text></g></g></svg>
